<?xml version="1.0" encoding="UTF-8" standalone="no"?>
<svg
   width="1024"
   height="1024"
   viewBox="0 0 1024 1024"
   fill="none"
   version="1.1"
   id="svg4"
   sodipodi:docname="Octicons-mark-github.svg"
   inkscape:version="1.1.2 (b8e25be833, 2022-02-05)"
   xmlns:inkscape="http://www.inkscape.org/namespaces/inkscape"
   xmlns:sodipodi="http://sodipodi.sourceforge.net/DTD/sodipodi-0.dtd"
   xmlns="http://www.w3.org/2000/svg"
   xmlns:svg="http://www.w3.org/2000/svg">
  <defs
     id="defs8" />
  <sodipodi:namedview
     id="namedview6"
     pagecolor="#505050"
     bordercolor="#ffffff"
     borderopacity="1"
     inkscape:pageshadow="0"
     inkscape:pageopacity="0"
     inkscape:pagecheckerboard="1"
     showgrid="false"
     inkscape:zoom="4.4636115"
     inkscape:cx="347.92454"
     inkscape:cy="242.06856"
     inkscape:window-width="1920"
     inkscape:window-height="1001"
     inkscape:window-x="-9"
     inkscape:window-y="-9"
     inkscape:window-maximized="1"
     inkscape:current-layer="svg4" />
  <path
     id="path847"
     style="fill:#ffffff;stroke-width:0.0676944"
     d="m 463.66411,234.90176 a 31.999999,31.999999 0 0 0 -20.92115,7.79029 31.999999,31.999999 0 0 0 -0.0647,0.056 31.999999,31.999999 0 0 0 -3.16492,3.16479 31.999999,31.999999 0 0 0 -0.0617,0.0712 31.999999,31.999999 0 0 0 -2.70092,3.60803 c -3e-5,5e-5 -10e-5,8e-5 -1.3e-4,1.2e-4 a 31.999999,31.999999 0 0 0 -0.012,0.0187 31.999999,31.999999 0 0 0 -4.9e-4,7.4e-4 31.999999,31.999999 0 0 0 -4.74414,12.71667 31.999999,31.999999 0 0 0 -0.006,0.05 31.999999,31.999999 0 0 0 -1.2e-4,9.8e-4 31.999999,31.999999 0 0 0 -0.32336,4.52246 31.999999,31.999999 0 0 0 0.32385,4.52905 c 3e-5,2.1e-4 9e-5,4.1e-4 1.2e-4,6.1e-4 a 31.999999,31.999999 0 0 0 0.007,0.048 31.999999,31.999999 0 0 0 7.47632,16.36609 31.999999,31.999999 0 0 0 0.0245,0.0276 31.999999,31.999999 0 0 0 3.16065,3.16052 31.999999,31.999999 0 0 0 0.0918,0.0818 31.999999,31.999999 0 0 0 3.6e-4,3.7e-4 31.999999,31.999999 0 0 0 3.52539,2.63916 c 2e-4,1.3e-4 4.1e-4,2.4e-4 6.1e-4,3.6e-4 a 31.999999,31.999999 0 0 0 0.17798,0.11524 31.999999,31.999999 0 0 0 3.7e-4,2.4e-4 31.999999,31.999999 0 0 0 3.85717,2.1062 c 1.7e-4,8e-5 3.3e-4,1.7e-4 4.9e-4,2.5e-4 a 31.999999,31.999999 0 0 0 0.1427,0.0636 31.999999,31.999999 0 0 0 3.3219,1.23889 c 1.41872,0.14631 1.96887,-0.74433 1.96887,-1.54053 0,-0.76 -0.04,-3.28008 -0.04,-5.96008 -8.03999,1.48 -10.12,-1.96001 -10.76,-3.76001 -0.36,-0.92 -1.91991,-3.76002 -3.27991,-4.52002 -1.12,-0.6 -2.72004,-2.07999 -0.04,-2.11999 2.52,-0.04 4.32004,2.32003 4.92004,3.28003 2.88,4.84 7.47995,3.48001 9.31995,2.64001 0.28,-2.08 1.12004,-3.48003 2.04004,-4.28003 -7.12,-0.8 -14.56006,-3.55993 -14.56006,-15.79992 0,-3.48 1.24003,-6.35998 3.28003,-8.59998 -0.32,-0.8 -1.44005,-4.0801 0.31995,-8.4801 0,0 2.68004,-0.83997 8.80004,3.28003 2.56,-0.72 5.28,-1.07996 8,-1.07996 2.72,0 5.44,0.35996 8,1.07996 4.59,-3.12 7.24502,-3.40504 8.28565,-3.35254 0.34687,0.0175 0.5144,0.0725 0.5144,0.0725 1.76,4.4 0.63995,7.6801 0.31995,8.4801 2.04,2.24 3.28003,5.07998 3.28003,8.59998 0,12.27999 -7.47998,14.99992 -14.59998,15.79992 1.16,1 2.15991,2.92004 2.15991,5.92004 0,4.28 -0.0399,7.72005 -0.0399,8.80005 0,0.77119 0.51595,1.66428 1.83692,1.55994 4e-5,0 8e-5,0 1.2e-4,0 a 31.999999,31.999999 0 0 0 17.07031,-13.07984 c 2e-5,-3e-5 -2e-5,-1e-4 0,-1.3e-4 a 31.999999,31.999999 0 0 0 0.0221,-0.0342 31.999999,31.999999 0 0 0 4.73572,-12.68762 31.999999,31.999999 0 0 0 0.0122,-0.0851 31.999999,31.999999 0 0 0 0.32263,-4.5105 31.999999,31.999999 0 0 0 -0.002,-0.0967 c -6e-5,-0.025 -0.002,-0.0496 -0.002,-0.0746 a 31.999999,31.999999 0 0 0 -0.036,-1.42028 31.999999,31.999999 0 0 0 -0.0999,-1.3534 c -2.1e-4,-0.002 -2.7e-4,-0.005 -4.8e-4,-0.007 a 31.999999,31.999999 0 0 0 -0.0148,-0.19336 31.999999,31.999999 0 0 0 -31.84472,-28.85449 z m -9.88892,62.37793 a 31.999999,31.999999 0 0 0 2.4071,0.65942 31.999999,31.999999 0 0 1 -2.4071,-0.65942 z m 19.72546,0.0195 a 31.999999,31.999999 0 0 1 -2.33557,0.63574 31.999999,31.999999 0 0 0 2.33557,-0.63574 z m -15.62121,1.00915 a 31.999999,31.999999 0 0 0 1.94287,0.31861 31.999999,31.999999 0 0 1 -1.94287,-0.31861 z m 11.52319,0.01 a 31.999999,31.999999 0 0 1 -1.89258,0.30835 31.999999,31.999999 0 0 0 1.89258,-0.30835 z"
     inkscape:export-filename="C:\Users\03erpe05\OneDrive - Stenungsunds Kommun\Övrigt\PROGRAMERING\Website\img\path847.png"
     inkscape:export-xdpi="96"
     inkscape:export-ydpi="96" />
</svg>
